<?xml version="1.0" encoding="UTF-8"?>
<svg version="1.1" xmlns="http://www.w3.org/2000/svg" width="1206" height="1113">
<path d="M0 0 C397.98 0 795.96 0 1206 0 C1206 367.29 1206 734.58 1206 1113 C808.02 1113 410.04 1113 0 1113 C0 745.71 0 378.42 0 0 Z " fill="none" transform="translate(0,0)"/>
<path d="M0 0 C1.89844309 -0.00135105 3.79688584 -0.00329522 5.69532776 -0.00579834 C9.65474779 -0.00872965 13.61407695 -0.00451711 17.57348633 0.00488281 C22.61071491 0.01626822 27.64773007 0.00971082 32.68495083 -0.00226212 C36.59981347 -0.00954158 40.51462679 -0.00716493 44.42949104 -0.00200653 C46.28515715 -0.0006864 48.14082796 -0.00225932 49.99648857 -0.00696564 C76.36667534 -0.05918454 76.36667534 -0.05918454 83.94554138 3.5927124 C89.59836597 10.32041284 88.57168423 22.37710473 88.80846977 30.8215971 C88.86490149 32.57448317 88.86490149 32.57448317 88.92247324 34.36278109 C89.29845368 47.03130576 89.33080698 59.6970448 89.31838989 72.37007141 C89.31954555 74.98651135 89.32113604 77.60295113 89.32311714 80.21939057 C89.32668788 85.85391014 89.32664491 91.48842008 89.32406998 97.12294006 C89.32025066 105.50382759 89.3222403 113.88470716 89.32527828 122.26559465 C89.33051885 137.25097181 89.33009728 152.23634469 89.32719937 167.22172225 C89.32467286 180.35339886 89.32403215 193.48507391 89.32522202 206.61675072 C89.32533659 207.92894553 89.32533659 207.92894553 89.32545349 209.26764932 C89.32576489 212.82000928 89.3260833 216.37236924 89.32641325 219.92472919 C89.3294673 253.20471267 89.32670798 286.48469343 89.32131635 319.76467648 C89.31658259 349.20713278 89.31698647 378.64958475 89.32177734 408.09204102 C89.32715893 441.274668 89.32923942 474.45729258 89.32616508 507.63991994 C89.32584445 511.19377116 89.3255316 514.74762239 89.32522202 518.30147362 C89.32514294 519.17632727 89.32506386 520.05118093 89.32498239 520.9525453 C89.32385484 534.04385261 89.32515665 547.13515816 89.32770157 560.22646523 C89.3305912 575.16422323 89.32978313 590.10197633 89.32442082 605.03973375 C89.32178256 612.63528829 89.32059888 620.23083488 89.32406998 627.82638931 C89.33563199 655.17641667 89.30096406 682.52539696 88.86430083 709.87265082 C88.82764202 712.18732548 88.79358008 714.50204307 88.7624128 716.81679819 C88.30203557 749.71293922 88.30203557 749.71293922 82.19140625 756.265625 C75.86708701 759.77913569 67.80624445 759.41521424 60.734375 759.41088867 C59.52759346 759.41592659 59.52759346 759.41592659 58.2964325 759.42106628 C55.657241 759.43050258 53.01811353 759.43251614 50.37890625 759.43359375 C48.52294897 759.43681298 46.66699193 759.44017753 44.81103516 759.44367981 C40.92431044 759.44965396 37.03760789 759.45152163 33.15087891 759.45092773 C28.2134869 759.45082657 23.27624018 759.46443882 18.33888245 759.48169994 C14.50371675 759.49292068 10.66858496 759.49484383 6.83340454 759.49431801 C5.0156708 759.49548455 3.19793579 759.49983012 1.38021851 759.50765038 C-29.80424599 759.62918818 -29.80424599 759.62918818 -35.80859375 755.265625 C-43.38695444 731.78973347 -39.14056386 700.27123734 -39.18037915 675.95895028 C-39.1924826 669.98010947 -39.21631044 664.00131508 -39.23899841 658.02250671 C-39.2803381 646.71780987 -39.31289094 635.41310853 -39.34147257 624.10837287 C-39.39269087 603.88911625 -39.45530342 583.66989809 -39.52681297 563.45070332 C-39.55141336 556.38290086 -39.57085152 549.31510853 -39.58632869 542.24728054 C-39.24466854 505.18901664 -39.24466854 505.18901664 -41.80859375 468.265625 C-45.70620422 470.05686506 -48.17741111 472.53328831 -50.99609375 475.703125 C-51.48166748 476.24171143 -51.96724121 476.78029785 -52.4675293 477.33520508 C-57.09143213 482.50327481 -61.45654944 487.86800374 -65.80859375 493.265625 C-76.24522425 506.03876627 -86.6841812 518.81471154 -97.78125 531.0234375 C-99.54826574 532.97770924 -101.27772904 534.95622237 -102.99609375 536.953125 C-114.12575405 549.70586076 -125.79406563 562.46804246 -138.70703125 573.44140625 C-140.8268621 575.28148247 -142.8762582 577.1872088 -144.92431641 579.10644531 C-151.29705852 585.0565371 -157.97596191 590.46959563 -164.88964844 595.77490234 C-166.87488465 597.31712274 -168.83137263 598.89081934 -170.78515625 600.47265625 C-189.75535415 615.72164953 -210.43649767 628.66551124 -231.80859375 640.265625 C-232.74928711 640.78044434 -233.68998047 641.29526367 -234.65917969 641.82568359 C-259.45674174 655.32293514 -285.10459404 666.13483315 -311.80566406 675.23583984 C-314.42792529 676.13508357 -317.03769042 677.06115985 -319.64453125 678.00390625 C-342.73488814 686.23037794 -375.48461609 696.51104116 -399.80859375 688.265625 C-404.02495077 685.38074914 -405.63187947 681.10038583 -406.80859375 676.265625 C-407.35591742 671.89443188 -407.05821054 668.21060285 -405.93359375 663.953125 C-399.78201999 656.17319348 -386.0623366 655.42101092 -376.84750366 653.51882935 C-360.89378302 650.20858276 -345.23255964 646.57013507 -329.80859375 641.265625 C-328.22159668 640.73098633 -328.22159668 640.73098633 -326.60253906 640.18554688 C-272.1256654 621.75105942 -220.57294361 595.70260626 -178.1640625 556.4375 C-175.99704408 554.43938683 -173.79216857 552.50112656 -171.55859375 550.578125 C-168.45395558 547.88365245 -165.55917967 545.04118134 -162.68237305 542.10693359 C-160.87805994 540.33388741 -159.01669698 538.68568604 -157.09375 537.04296875 C-152.79952633 533.30787335 -148.75756311 529.36293948 -144.74609375 525.328125 C-144.07771484 524.66361328 -143.40933594 523.99910156 -142.72070312 523.31445312 C-138.79949271 519.38562131 -135.07092543 515.34599022 -131.44555664 511.14331055 C-129.51288928 508.92643587 -127.50792263 506.78899701 -125.48632812 504.65356445 C-95.9922746 473.39934939 -75.62058333 433.8555433 -59.80859375 394.265625 C-59.4621582 393.42128906 -59.11572266 392.57695313 -58.75878906 391.70703125 C-48.45755605 366.5377197 -44.66403839 339.72375247 -42.38265991 312.80041504 C-42.25604152 311.30739336 -42.12665266 309.8146021 -41.99356079 308.32214355 C-40.93338101 296.22542354 -40.58323804 284.1123712 -40.28564453 271.97802734 C-40.26396808 271.10743907 -40.24229162 270.2368508 -40.21995831 269.33988106 C-39.76702266 250.87923693 -39.61164158 232.42208529 -39.53820229 213.95661044 C-39.51935751 209.49661489 -39.4951942 205.0366477 -39.47155762 200.57667542 C-39.41749986 190.23148623 -39.36903549 179.88627522 -39.32161713 169.54105377 C-38.92023193 82.07505736 -38.92023193 82.07505736 -38.37055016 46.02671933 C-38.34025267 44.01542729 -38.31154157 42.00411156 -38.28285217 39.99279594 C-38.22929238 36.3233047 -38.1696052 32.65397323 -38.10742188 28.98461914 C-38.08473236 27.40708327 -38.08473236 27.40708327 -38.06158447 25.79767799 C-38.0085713 22.95144046 -37.92246575 20.11003908 -37.80859375 17.265625 C-37.77527451 16.35139708 -37.74195526 15.43716915 -37.70762634 14.49523735 C-37.45095081 10.44015922 -37.11107996 7.80157884 -35.09059143 4.22161865 C-27.12018494 -2.61014312 -10.08296935 -0.02554001 0 0 Z " fill="#114b5f" transform="translate(492.80859375,177.734375)"/>
<path d="M0 0 C3.65584682 0.00010181 7.31150032 -0.01360674 10.96730137 -0.03077221 C13.83738533 -0.04202632 16.70742426 -0.04391524 19.577528 -0.04339027 C21.56452257 -0.0450995 23.55150312 -0.05583717 25.53846741 -0.06694031 C51.21654796 -0.00349867 51.21654796 -0.00349867 60.82543945 5.18530273 C63.61409344 10.65563823 63.54286252 16.51747788 63.92675781 22.53881836 C64.05286768 24.49771877 64.05286768 24.49771877 64.18152523 26.49619293 C65.32369401 45.7040184 65.16390629 64.96225679 65.19722486 84.19626045 C65.20939294 89.89132481 65.23322512 95.58634133 65.25584412 101.28137207 C65.29721108 112.08982331 65.32972067 122.89827949 65.35831827 133.70677137 C65.46467295 209.53040195 65.46467295 209.53040195 66.17274284 285.34977722 C66.20827913 287.80597146 66.24158837 290.26219939 66.27218819 292.71846008 C66.43577585 305.32408282 66.89687049 317.88365466 67.71826172 330.46459961 C67.79183616 331.63401848 67.86541059 332.80343735 67.94121456 334.00829315 C68.80872548 346.28710709 71.13950853 358.19123189 73.82543945 370.18530273 C74.00945312 371.04849121 74.1934668 371.91167969 74.38305664 372.80102539 C79.07285265 394.69396407 87.13098252 416.0333539 96.82543945 436.18530273 C97.15253906 436.86979492 97.47963867 437.55428711 97.81665039 438.25952148 C104.50984756 452.1813716 112.01236327 465.4788343 120.82543945 478.18530273 C121.19362793 478.7209082 121.56181641 479.25651367 121.94116211 479.80834961 C128.74083713 489.67262637 136.12464526 499.01135416 143.82543945 508.18530273 C144.23262207 508.67539825 144.63980469 509.16549377 145.05932617 509.67044067 C152.38986679 518.47804287 160.11026429 526.76045014 168.25415039 534.81982422 C170.09371404 536.6408936 171.92491087 538.47007777 173.75512695 540.30053711 C179.60786675 546.13619582 185.47966621 551.88091838 191.82543945 557.18530273 C192.76299072 557.98303101 192.76299072 557.98303101 193.71948242 558.796875 C233.53258372 592.53619629 277.99070185 617.95559473 326.82543945 636.18530273 C327.57196777 636.46599609 328.31849609 636.74668945 329.08764648 637.03588867 C352.64562078 645.77543046 378.02551723 650.55943249 402.57177734 655.76806641 C410.3124819 657.42277937 416.74450164 659.72866449 421.7512207 666.13452148 C423.83308545 670.10899055 423.72316353 673.86542747 422.82543945 678.18530273 C421.02277585 682.68815865 418.90650647 685.48711362 414.82543945 688.12280273 C372.61315103 703.07298822 304.54097322 670.11705986 266.81521606 652.14389038 C227.11976122 633.06889422 190.73262352 607.96281059 158.19262695 578.33374023 C156.66839259 576.95035922 155.13269439 575.57945252 153.58325195 574.22436523 C147.89515353 569.22573328 142.50102173 563.96683218 137.13793945 558.62280273 C136.42500732 557.91446289 135.7120752 557.20612305 134.97753906 556.47631836 C130.94288509 552.42994528 127.08604456 548.28424443 123.35546875 543.95605469 C121.47542531 541.78022014 119.52639811 539.67256112 117.57543945 537.56030273 C111.98890822 531.35934759 106.90047084 524.80505748 101.82543945 518.18530273 C101.0998584 517.24509277 101.0998584 517.24509277 100.35961914 516.28588867 C90.21648982 503.11655839 81.14365481 489.31985403 72.12060547 475.37060547 C71.61074348 474.58250237 71.1008815 473.79439926 70.57556915 472.98241425 C69.32546384 471.05008389 68.07542235 469.11771228 66.82543945 467.18530273 C66.13829342 501.1016763 65.67683841 535.01787875 65.32543945 568.93920898 C65.30470752 570.92868434 65.28396571 572.91815959 65.26321411 574.90763474 C65.08180036 592.32995241 64.90474317 609.75231428 64.73168182 627.17471689 C64.62957149 637.45396066 64.52527576 647.73317714 64.41692352 658.01235718 C64.36615891 662.84126908 64.31677423 667.67018546 64.27099609 672.49914742 C63.80863881 721.11485281 63.80863881 721.11485281 61.88793945 742.43530273 C61.81397949 743.2601715 61.74001953 744.08504026 61.66381836 744.93490505 C60.90147056 752.30913463 60.90147056 752.30913463 58.82543945 755.18530273 C51.20466309 759.38450603 42.83943225 759.3358504 34.31494141 759.33056641 C33.51681534 759.33392502 32.71868927 759.33728363 31.89637756 759.34074402 C29.28547564 759.35015991 26.6746385 759.35219253 24.0637207 759.35327148 C22.22682164 759.35649108 20.38992283 759.35985567 18.55302429 759.36335754 C14.71096198 759.36932583 10.86892208 759.37119987 7.02685547 759.37060547 C2.13973987 759.3705041 -2.74722964 759.38414068 -7.63431072 759.40137768 C-11.42735942 759.41257944 -15.22037374 759.41452217 -19.01343727 759.41399574 C-20.81328648 759.41516418 -22.61313693 759.41952086 -24.41296959 759.42732811 C-51.65090825 759.53440426 -51.65090825 759.53440426 -58.17456055 755.18530273 C-59.11937059 752.35087262 -59.35718945 750.36372514 -59.47338867 747.41137695 C-59.51274536 746.45135773 -59.55210205 745.4913385 -59.59265137 744.50222778 C-59.6299939 743.46693939 -59.66733643 742.431651 -59.70581055 741.36499023 C-59.74734253 740.28724335 -59.78887451 739.20949646 -59.83166504 738.09909058 C-60.52682631 719.43722303 -60.78119426 700.76368134 -61.10645461 682.09260201 C-61.15087875 679.54394881 -61.19560227 676.9953008 -61.24066758 674.44665885 C-62.24839366 617.14593881 -62.33884727 559.85070169 -62.34181762 502.54235101 C-62.34232109 494.81861521 -62.34463379 487.09488056 -62.34731483 479.37114525 C-62.35465996 457.75346152 -62.36084524 436.13577919 -62.36031628 414.51809406 C-62.3603007 413.83445524 -62.36028512 413.15081642 -62.36026907 412.44646127 C-62.36018603 408.98562928 -62.36008699 405.52479729 -62.35998436 402.0639653 C-62.35996442 401.37728191 -62.35994447 400.69059853 -62.35992392 399.98310655 C-62.35988348 398.59447789 -62.35984168 397.20584923 -62.35979853 395.81722057 C-62.35918813 374.29496968 -62.36666716 352.77273465 -62.38037109 331.25048828 C-62.39595407 306.77023385 -62.40431173 282.2899899 -62.40340787 257.80973023 C-62.40308282 244.96091269 -62.40556992 232.11211321 -62.41658592 219.26329994 C-62.45901441 167.2870705 -62.24269914 115.33323098 -61.22265625 63.36572266 C-61.20097507 62.24661936 -61.17929389 61.12751607 -61.1569557 59.97450055 C-61.03292884 53.5946638 -60.90332413 47.21498324 -60.76484023 40.83544327 C-60.72340935 38.91961985 -60.68297111 37.00377464 -60.64363469 35.08790706 C-60.47737954 27.10269425 -60.30554212 19.11357064 -59.82911968 11.13989735 C-59.77586771 10.23895275 -59.72261573 9.33800815 -59.66775006 8.4097622 C-59.08229696 5.76916127 -58.29068265 4.82690151 -56.17456055 3.18530273 C-39.02488662 -2.48875295 -17.87482664 -0.00262239 0 0 Z " fill="#114b5f" transform="translate(676.174560546875,177.814697265625)"/>
<path d="M0 0 C1.86604334 -0.00321996 3.73208644 -0.00658457 5.59812927 -0.01008606 C9.4921019 -0.01604388 13.38605244 -0.01792926 17.2800293 -0.01733398 C22.24819235 -0.01723219 27.21621308 -0.03091777 32.18434238 -0.04810619 C36.03212628 -0.05926589 39.87987607 -0.06125203 43.72767448 -0.06072426 C45.55874055 -0.0618971 47.3898077 -0.06627939 49.22085762 -0.07405663 C73.9095383 -0.16916584 73.9095383 -0.16916584 80.68359375 5.16796875 C87.5288168 12.64663395 85.97425266 26.70757999 85.92651367 36.26342773 C85.92838369 37.49587628 85.93025372 38.72832483 85.9321804 39.99812031 C85.93517042 43.35249682 85.92930367 46.7066245 85.91918683 50.06097126 C85.91045648 53.64401955 85.91306395 57.22706329 85.91404724 60.81011963 C85.9139727 67.7001329 85.9026602 74.59008145 85.88667887 81.48007452 C85.87390855 87.03437314 85.86512007 92.58866527 85.85882568 98.14297485 C85.70137371 232.86212953 85.70137371 232.86212953 82.68359375 297.16796875 C82.64899048 297.945495 82.61438721 298.72302124 82.57873535 299.52410889 C82.1624875 308.62959346 81.18832672 317.4666858 79.43359375 326.41796875 C79.21106934 327.5783667 78.98854492 328.73876465 78.75927734 329.93432617 C70.24668506 373.45412937 54.57143783 416.64079604 30.68359375 454.16796875 C30.05710937 455.16441406 29.430625 456.16085937 28.78515625 457.1875 C19.19795591 471.97282374 8.49316868 486.09226325 -3.31640625 499.16796875 C-4.1048291 500.04251709 -4.89325195 500.91706543 -5.70556641 501.81811523 C-11.90403558 508.65679554 -18.26915365 515.3070682 -24.79589844 521.83276367 C-26.32127338 523.36034291 -27.83841297 524.89580457 -29.35546875 526.43164062 C-34.95705268 532.06469761 -40.70291697 537.29593129 -46.92236328 542.25756836 C-48.83690607 543.7853368 -50.69836393 545.33774342 -52.53125 546.9609375 C-80.02280215 571.13930402 -114.20672549 590.13974975 -148.31640625 603.16796875 C-149.35104004 603.56612793 -150.38567383 603.96428711 -151.45166016 604.37451172 C-167.83040729 610.61549732 -184.16278728 615.57982153 -201.31640625 619.16796875 C-202.1161084 619.34440918 -202.91581055 619.52084961 -203.73974609 619.70263672 C-211.9817849 621.51168983 -219.99626171 622.44031698 -228.44140625 622.54296875 C-229.61485596 622.56399658 -229.61485596 622.56399658 -230.81201172 622.58544922 C-236.0238236 622.54157685 -239.69318219 621.60931411 -244.31640625 619.16796875 C-249.13123338 613.3901762 -248.46572776 605.44145809 -248.46166992 598.28613281 C-248.46502853 597.4249585 -248.46838715 596.56378418 -248.47184753 595.67651367 C-248.48130202 592.84552545 -248.48329797 590.01459675 -248.484375 587.18359375 C-248.48759174 585.20212785 -248.49095612 583.22066219 -248.49446106 581.23919678 C-248.50043882 577.09012299 -248.50230238 572.94106998 -248.50170898 568.79199219 C-248.50160752 563.49872509 -248.51524979 558.20559259 -248.53248119 552.91235733 C-248.54364951 548.8200419 -248.5456267 544.72775849 -248.54509926 540.63542938 C-248.54627248 538.68517341 -248.55065693 536.73491643 -248.55843163 534.7846756 C-248.65817558 507.17729274 -248.65817558 507.17729274 -242.31640625 500.16796875 C-236.28305386 495.41966273 -229.20644316 493.09903803 -222.03479004 490.60494995 C-189.13078103 479.12119574 -159.43550608 463.50151362 -133.31640625 440.16796875 C-132.42695313 439.38808594 -131.5375 438.60820313 -130.62109375 437.8046875 C-121.88195312 430.0677419 -113.83813972 422.01723131 -106.62207031 412.82861328 C-105.69647319 411.65136728 -104.76558863 410.47826976 -103.83105469 409.30810547 C-95.41790441 398.75667762 -87.97909567 387.90434809 -81.31640625 376.16796875 C-80.86023926 375.36939453 -80.40407227 374.57082031 -79.93408203 373.74804688 C-64.95784101 347.22379782 -54.14872565 317.27571761 -49.31640625 287.16796875 C-49.17750977 286.31734863 -49.03861328 285.46672852 -48.89550781 284.59033203 C-46.81095421 271.34483319 -45.89029425 258.04471228 -45.19140625 244.66796875 C-45.1527948 243.94668793 -45.11418335 243.2254071 -45.07440186 242.48226929 C-43.47967477 211.87611062 -43.18030599 181.19168232 -43.08661079 150.55013657 C-43.07061727 145.3594957 -43.04671029 140.16890629 -43.02171326 134.978302 C-42.95182962 120.25672678 -42.89038383 105.53513021 -42.83959961 90.81347656 C-42.81119882 82.59984379 -42.77581599 74.38627034 -42.73294586 66.17270005 C-42.7064852 61.02837068 -42.68839716 55.88410738 -42.67690861 50.73972392 C-42.66770858 47.54323046 -42.65032087 44.34681853 -42.63072968 41.15037346 C-42.62333906 39.68558104 -42.61917833 38.22076764 -42.61873436 36.75595665 C-42.60484361 11.38050015 -42.60484361 11.38050015 -38.00390625 5.41796875 C-28.35302229 -2.66184108 -11.87710981 0.00484359 0 0 Z " fill="#114b5f" transform="translate(335.31640625,177.83203125)"/>
<path d="M0 0 C4.06384575 0.01142131 8.12742789 0.00479181 12.19126415 -0.00714493 C15.37703863 -0.01445072 18.56275291 -0.01203663 21.74852943 -0.00688934 C23.24528347 -0.00557831 24.74204341 -0.00710834 26.23879051 -0.01184845 C53.02131103 -0.07814388 53.02131103 -0.07814388 63.68383789 5.26074219 C64.76977539 7.31152344 64.76977539 7.31152344 65.05883789 9.57324219 C65.16969727 10.311875 65.28055664 11.05050781 65.39477539 11.81152344 C65.49016602 12.61976563 65.58555664 13.42800781 65.68383789 14.26074219 C65.92391319 15.4869503 65.92391319 15.4869503 66.1688385 16.7379303 C66.86658889 21.51083571 67.03336802 26.2580278 67.21289062 31.07495117 C67.25430648 32.13183105 67.29572233 33.18871092 67.33839321 34.27761745 C67.77619245 45.92672318 68.01742143 57.57817788 68.21899414 69.23339844 C68.23965502 70.37984392 68.2603159 71.52628941 68.28160286 72.70747566 C68.60156825 90.57744758 68.80287365 108.44702386 68.92993164 126.31933594 C68.94252455 128.06642286 68.94252455 128.06642286 68.95537186 129.84880447 C69.03129751 140.4988487 69.10241293 151.14891573 69.16064453 161.79907227 C69.30871775 188.27095232 69.66941013 214.71471415 70.63305664 241.17089844 C70.69456815 242.88614621 70.69456815 242.88614621 70.75732231 244.63604546 C72.31236783 287.20350121 77.13701264 325.14590523 95.37133789 363.94824219 C95.72421875 364.69920166 96.07709961 365.45016113 96.44067383 366.22387695 C108.06651263 390.88275451 122.45765213 410.20721686 141.70214844 429.51928711 C143.35896951 431.18580145 145.00474928 432.86273324 146.65063477 434.54003906 C154.18013899 442.14306828 162.13529424 448.83364231 170.68383789 455.26074219 C171.65973877 456.00364502 172.63563965 456.74654785 173.64111328 457.51196289 C192.43392419 471.70970123 213.4992776 480.9951418 235.62060547 488.71264648 C242.16586918 490.99766866 248.67513783 493.30238905 255.05883789 496.01074219 C256.22157227 496.50058594 257.38430664 496.99042969 258.58227539 497.49511719 C263.63023328 500.36876576 267.00902585 503.28068991 268.91201782 508.86450195 C269.14894749 510.20130431 269.35482047 511.54387951 269.53393555 512.88964844 C269.64673166 513.62639297 269.75952778 514.36313751 269.87574196 515.12220764 C271.12821009 524.11653349 271.11769493 533.13518543 271.08227539 542.19824219 C271.08430326 544.05810662 271.08722058 545.91797028 271.0909729 547.77783203 C271.09535396 551.64021515 271.08909726 555.50238775 271.07495117 559.36474609 C271.05776498 564.2948305 271.06778658 569.22442814 271.08566856 574.15449524 C271.09653929 577.98081089 271.09304664 581.80701209 271.08528519 585.6333313 C271.08329725 587.45126403 271.08569247 589.26920746 271.09272385 591.08712769 C271.15597272 612.00457691 271.15597272 612.00457691 265.74633789 618.63574219 C265.06571289 619.17199219 264.38508789 619.70824219 263.68383789 620.26074219 C263.00321289 620.81761719 262.32258789 621.37449219 261.62133789 621.94824219 C253.73752104 627.28889231 238.61743135 623.35651518 229.6730957 621.68603516 C227.33983535 621.22680187 225.01176715 620.74627524 222.68383789 620.26074219 C221.27448975 619.97287842 221.27448975 619.97287842 219.83666992 619.67919922 C144.43220811 604.04877138 73.5394518 560.01175609 23.68383789 501.26074219 C22.89750977 500.36355469 22.11118164 499.46636719 21.30102539 498.54199219 C-35.46956348 433.3515433 -53.02337562 357.22623121 -55.32232666 273.10174561 C-55.39660497 270.42716301 -55.47596007 267.75273415 -55.55546188 265.07830238 C-55.76374333 258.06970835 -55.95566215 251.06081019 -56.13616562 244.05144691 C-56.23404507 240.27775882 -56.33726919 236.50435547 -56.45202637 232.73114014 C-57.55717485 196.33669065 -57.47016105 159.93847284 -57.44473141 123.53124541 C-57.44039419 116.59499981 -57.44349123 109.65877243 -57.44835961 102.72252798 C-57.45294611 95.90427225 -57.45351564 89.08602421 -57.45092094 82.26776743 C-57.44939265 78.24893677 -57.44906662 74.23011824 -57.45245743 70.21128845 C-57.46351971 54.97720333 -57.39427518 39.75868877 -56.87036133 24.53222656 C-56.83163973 23.3883976 -56.79291813 22.24456863 -56.75302315 21.06607819 C-56.32577115 10.08761476 -56.32577115 10.08761476 -55.31616211 5.26074219 C-51.66954982 2.00889921 -47.480416 1.53784649 -42.76538086 1.08886719 C-41.96283371 1.00928772 -41.16028656 0.92970825 -40.3334198 0.84771729 C-26.9393939 -0.29129771 -13.43170289 -0.03801191 0 0 Z " fill="#114b5f" transform="translate(828.316162109375,177.7392578125)"/>
<path d="M0 0 C18.81 0 37.62 0 57 0 C57 226.71 57 453.42 57 687 C38.19 687 19.38 687 0 687 C0 460.29 0 233.58 0 0 Z " fill="#f6f2ea" transform="translate(648,214)"/>
<path d="M0 0 C18.81 0 37.62 0 57 0 C57 226.71 57 453.42 57 687 C38.19 687 19.38 687 0 687 C0 460.29 0 233.58 0 0 Z " fill="#f6f2ea" transform="translate(490,214)"/>
<path d="M0 0 C19.14 0 38.28 0 58 0 C58 16.07133402 57.99529424 32.13725663 57.8515625 48.20703125 C57.84335857 49.15407614 57.83515465 50.10112103 57.82670212 51.07686424 C57.76372429 58.32211841 57.69533694 65.56731391 57.625 72.8125 C57.6146875 73.88635956 57.604375 74.96021912 57.59375 76.06661987 C57.26385947 110.21568176 56.73737137 144.35732319 56 178.5 C55.96846203 179.97491095 55.96846203 179.97491095 55.93628693 181.47961807 C54.51672831 247.82655935 54.51672831 247.82655935 52.6875 263.375 C52.55778809 264.5194458 52.42807617 265.6638916 52.29443359 266.84301758 C50.39102996 282.93248177 47.57904497 298.58291538 42.62792969 314.02050781 C42.0117339 315.96300992 41.42722027 317.91232903 40.8515625 319.8671875 C27.3043336 365.45240421 3.42558789 407.39992379 -28 443 C-28.65581055 443.74338623 -29.31162109 444.48677246 -29.98730469 445.25268555 C-35.43827104 451.37337277 -41.07715289 457.27024495 -46.875 463.0625 C-47.75414062 463.94083496 -48.63328125 464.81916992 -49.5390625 465.72412109 C-55.43956353 471.5689776 -61.43532449 476.91366874 -68 482 C-69.89848448 483.62190188 -71.79416698 485.2470875 -73.6875 486.875 C-106.18123161 513.91145105 -162.69942853 549 -206 549 C-206 529.86 -206 510.72 -206 491 C-197.13253012 487.6746988 -197.13253012 487.6746988 -193.6171875 486.5625 C-167.15015486 477.92738957 -143.20928726 463.63657749 -121 447 C-120.45972168 446.59716797 -119.91944336 446.19433594 -119.36279297 445.77929688 C-115.52797395 442.91142037 -111.74864135 439.97948168 -108 437 C-106.49759766 435.80890625 -106.49759766 435.80890625 -104.96484375 434.59375 C-89.68585395 422.07695431 -75.89284554 408.01619177 -64.39501953 391.94628906 C-63.07335653 390.10234481 -61.72718365 388.27964515 -60.37109375 386.4609375 C-43.1146117 363.12041793 -29.94543804 337.21212033 -20 310 C-19.63922363 309.02434082 -19.27844727 308.04868164 -18.90673828 307.04345703 C-12.32819304 288.93956744 -8.58930109 270.23850796 -5.38853073 251.28691483 C-5.1169835 249.68857177 -4.82899024 248.0929747 -4.52861404 246.49979782 C-2.651413 235.74101874 -2.31460278 224.94573354 -1.90087891 214.05078125 C-1.85911821 213.00358728 -1.81735751 211.95639332 -1.77433133 210.8774662 C-0.90785464 188.97583898 -0.65542119 167.08699255 -0.59528303 145.1704216 C-0.57917703 140.02968119 -0.55255114 134.88899292 -0.5272522 129.74829102 C-0.48127393 120.10260043 -0.44415065 110.45689907 -0.41057932 100.81115818 C-0.37176917 89.7920838 -0.32252316 78.77306277 -0.27259517 67.75403404 C-0.17048628 45.16939132 -0.08222594 22.58472446 0 0 Z " fill="#f6f2ea" transform="translate(328,214)"/>
<path d="M0 0 C18.48 0 36.96 0 56 0 C56.56196048 34.53056205 57.05944272 69.05917896 57.28125 103.59375 C57.28601852 104.32848164 57.29078705 105.06321327 57.29570007 105.8202095 C57.37332168 117.7993547 57.44392337 129.77853926 57.51302338 141.75773621 C57.5434298 147.02859742 57.57414917 152.29945663 57.60546875 157.5703125 C57.61209376 158.68537674 57.61209376 158.68537674 57.61885262 159.82296753 C57.69353071 172.2789062 57.78783379 184.73462289 57.89683533 197.19030762 C57.96487565 205.05601757 58.0161927 212.92151728 58.04765272 220.78745985 C58.07113934 226.34073237 58.11269777 231.89369639 58.16748095 237.4467473 C58.19868781 240.66912649 58.21950973 243.89096855 58.22398376 247.11351013 C58.24875785 261.31357519 59.08503776 273.63108904 64 287 C64.45527391 288.57854319 64.89333907 290.16234607 65.30078125 291.75390625 C84.22084649 362.97809008 126.58736064 425.56160672 191 463 C191.58894043 463.34981934 192.17788086 463.69963867 192.78466797 464.06005859 C209.4931813 473.97159238 227.33191172 481.24775073 245.32739258 488.45849609 C246.44009521 488.90531738 247.55279785 489.35213867 248.69921875 489.8125 C250.19714966 490.40998047 250.19714966 490.40998047 251.7253418 491.01953125 C254 492 254 492 255 493 C256.52331054 502.82169174 256.186196 512.97183988 256.18530273 522.88525391 C256.18752335 525.65412023 256.20583869 528.42260832 256.22460938 531.19140625 C256.22753787 532.95312365 256.2295263 534.71484292 256.23046875 536.4765625 C256.23765427 537.30354645 256.24483978 538.1305304 256.25224304 538.98257446 C256.2288697 544.7711303 256.2288697 544.7711303 254 547 C246.35580499 548.01534998 239.26465649 546.422399 232 544.1875 C230.97527588 543.8790918 229.95055176 543.57068359 228.89477539 543.25292969 C216.27180351 539.32379269 204.09925397 534.30335713 192 529 C191.0114502 528.56703613 190.02290039 528.13407227 189.00439453 527.68798828 C143.29743187 507.37636979 98.41294929 475.08426716 68 435 C67.23171875 434.03707031 66.4634375 433.07414062 65.671875 432.08203125 C36.56885706 395.46203369 15.37370808 351.13470675 7 305 C6.8242041 304.09926758 6.6484082 303.19853516 6.46728516 302.27050781 C3.46705909 286.61738966 2.34567356 270.84322879 1.40112305 254.95776367 C1.30236407 253.30500476 1.30236407 253.30500476 1.20160997 251.61885679 C-0.26776715 226.406522 -0.39599085 201.23841652 -0.30418181 175.99100518 C-0.28493846 169.76527019 -0.28362829 163.53952663 -0.28010559 157.31376648 C-0.27092075 145.61752892 -0.24649875 133.92137932 -0.21605712 122.22517985 C-0.19227695 112.87790499 -0.17584792 103.5306462 -0.16479492 94.18334961 C-0.16400675 93.51870051 -0.16321858 92.85405141 -0.16240653 92.16926143 C-0.15848951 88.83267973 -0.15470572 85.49609789 -0.15097082 82.15951598 C-0.11993051 54.77295122 -0.06509708 27.38650644 0 0 Z " fill="#f6f2ea" transform="translate(807,214)"/>
</svg>
